name analog
datacolumns 19
datarows 79
range 0.40800000000000014 0.4470000000000002
endheader
time	ground_force_vx	ground_force_vy	ground_force_vz	ground_force_px	ground_force_py	ground_force_pz	l_ground_force_vx	l_ground_force_vy	l_ground_force_vz	l_ground_force_px	l_ground_force_py	l_ground_force_pz	ground_torque_x	ground_torque_y	ground_torque_z	l_ground_torque_x	l_ground_torque_y	l_ground_torque_z
0.40800000000000014	-0.0	-0.0	-0.0	-11.69432544708252	3.061451196670532	-743.6280517578125	-0.0	-0.0	-0.0	-0.0	-0.0	-0.0	-0.0	-0.0	-0.0	-0.0	-0.0	-0.0
0.40850000000000014	-0.0	-0.0	-0.0	-12.939553260803224	4.359339237213135	-745.779296875	-0.0	-0.0	-0.0	-0.0	-0.0	-0.0	-0.0	-0.0	-0.0	-0.0	-0.0	-0.0
0.40900000000000014	-0.0	-0.0	-0.0	-13.389853477478027	5.975872039794922	-746.1172485351562	-0.0	-0.0	-0.0	-0.0	-0.0	-0.0	-0.0	-0.0	-0.0	-0.0	-0.0	-0.0
0.40950000000000014	-0.0	-0.0	-0.0	-13.751163482666016	7.215317726135254	-747.0764770507812	-0.0	-0.0	-0.0	-0.0	-0.0	-0.0	-0.0	-0.0	-0.0	-0.0	-0.0	-0.0
0.41000000000000014	-0.0	-0.0	-0.0	-13.105138778686523	8.09766960144043	-746.8077392578125	-0.0	-0.0	-0.0	-0.0	-0.0	-0.0	-0.0	-0.0	-0.0	-0.0	-0.0	-0.0
0.41050000000000014	-0.0	-0.0	-0.0	-12.672423362731934	9.011223793029783	-746.6403198242188	-0.0	-0.0	-0.0	-0.0	-0.0	-0.0	-0.0	-0.0	-0.0	-0.0	-0.0	-0.0
0.41100000000000014	-0.0	-0.0	-0.0	-12.489471435546877	10.123291015625	-747.681884765625	-0.0	-0.0	-0.0	-0.0	-0.0	-0.0	-0.0	-0.0	-0.0	-0.0	-0.0	-0.0
0.41150000000000014	-0.0	-0.0	-0.0	-12.090421676635742	10.639104843139648	-747.681884765625	-0.0	-0.0	-0.0	-0.0	-0.0	-0.0	-0.0	-0.0	-0.0	-0.0	-0.0	-0.0
0.41200000000000014	-0.0	-0.0	-0.0	-11.597366333007812	10.831802368164062	-747.1229248046875	-0.0	-0.0	-0.0	-0.0	-0.0	-0.0	-0.0	-0.0	-0.0	-0.0	-0.0	-0.0
0.41250000000000014	-0.0	-0.0	-0.0	-10.85684585571289	10.705792427062988	-746.2691650390625	-0.0	-0.0	-0.0	-0.0	-0.0	-0.0	-0.0	-0.0	-0.0	-0.0	-0.0	-0.0
0.41300000000000014	-0.0	-0.0	-0.0	-9.235882759094238	10.837121963500977	-744.9386596679688	-0.0	-0.0	-0.0	-0.0	-0.0	-0.0	-0.0	-0.0	-0.0	-0.0	-0.0	-0.0
0.41350000000000015	-0.0	-0.0	-0.0	-7.588193893432617	10.55930519104004	-742.840576171875	-0.0	-0.0	-0.0	-0.0	-0.0	-0.0	-0.0	-0.0	-0.0	-0.0	-0.0	-0.0
0.41400000000000015	-0.0	-0.0	-0.0	-5.9825592041015625	10.219056129455566	-741.0794677734375	-0.0	-0.0	-0.0	-0.0	-0.0	-0.0	-0.0	-0.0	-0.0	-0.0	-0.0	-0.0
0.41450000000000015	-0.0	-0.0	-0.0	-4.223545074462891	9.762567520141602	-739.1393432617188	-0.0	-0.0	-0.0	-0.0	-0.0	-0.0	-0.0	-0.0	-0.0	-0.0	-0.0	-0.0
0.41500000000000015	-0.0	-0.0	-0.0	-3.312223434448242	8.95474910736084	-736.7559814453125	-0.0	-0.0	-0.0	-0.0	-0.0	-0.0	-0.0	-0.0	-0.0	-0.0	-0.0	-0.0
0.41550000000000015	-0.0	-0.0	-0.0	-1.6291898488998413	7.932605743408203	-734.2147216796875	-0.0	-0.0	-0.0	-0.0	-0.0	-0.0	-0.0	-0.0	-0.0	-0.0	-0.0	-0.0
0.41600000000000015	-0.0	-0.0	-0.0	-0.6364274621009827	6.149997711181641	-732.82470703125	-0.0	-0.0	-0.0	-0.0	-0.0	-0.0	-0.0	-0.0	-0.0	-0.0	-0.0	-0.0
0.41650000000000015	-0.0	-0.0	-0.0	0.1246184706687927	4.9681782722473145	-729.8827514648438	-0.0	-0.0	-0.0	-0.0	-0.0	-0.0	-0.0	-0.0	-0.0	-0.0	-0.0	-0.0
0.41700000000000015	-0.0	-0.0	-0.0	0.8693451881408691	3.708265542984009	-726.1132202148438	-0.0	-0.0	-0.0	-0.0	-0.0	-0.0	-0.0	-0.0	-0.0	-0.0	-0.0	-0.0
0.41750000000000015	-0.0	-0.0	-0.0	2.016763687133789	1.7602529525756836	-725.31787109375	-0.0	-0.0	-0.0	-0.0	-0.0	-0.0	-0.0	-0.0	-0.0	-0.0	-0.0	-0.0
0.41800000000000015	-0.0	-0.0	-0.0	3.294282913208008	0.8346746563911438	-724.9404907226562	-0.0	-0.0	-0.0	-0.0	-0.0	-0.0	-0.0	-0.0	-0.0	-0.0	-0.0	-0.0
0.41850000000000015	-0.0	-0.0	-0.0	3.931895732879639	-3.1475610733032227	-725.81103515625	-0.0	-0.0	-0.0	-0.0	-0.0	-0.0	-0.0	-0.0	-0.0	-0.0	-0.0	-0.0
0.41900000000000015	-0.0	-0.0	-0.0	3.307555913925171	-7.864377021789551	-735.7006225585938	-0.0	-0.0	-0.0	-0.0	-0.0	-0.0	-0.0	-0.0	-0.0	-0.0	-0.0	-0.0
0.41950000000000015	-0.0	-0.0	-0.0	1.7911077737808228	-11.10707187652588	-745.698486328125	-0.0	-0.0	-0.0	-0.0	-0.0	-0.0	-0.0	-0.0	-0.0	-0.0	-0.0	-0.0
0.42000000000000015	-0.0	-0.0	-0.0	1.2148782014846802	-14.418071746826172	-758.8209838867188	-0.0	-0.0	-0.0	-0.0	-0.0	-0.0	-0.0	-0.0	-0.0	-0.0	-0.0	-0.0
0.42050000000000015	-0.0	-0.0	-0.0	0.6993265151977539	-17.674453735351562	-769.5791015625	-0.0	-0.0	-0.0	-0.0	-0.0	-0.0	-0.0	-0.0	-0.0	-0.0	-0.0	-0.0
0.42100000000000015	-0.0	-0.0	-0.0	-0.2266709208488464	-19.79423141479492	-780.1923828125	-0.0	-0.0	-0.0	-0.0	-0.0	-0.0	-0.0	-0.0	-0.0	-0.0	-0.0	-0.0
0.42150000000000015	-0.0	-0.0	-0.0	-0.4051469266414642	-20.84912109375	-792.5357666015625	-0.0	-0.0	-0.0	-0.0	-0.0	-0.0	-0.0	-0.0	-0.0	-0.0	-0.0	-0.0
0.42200000000000015	-0.0	-0.0	-0.0	0.0816566422581672	-20.507539749145508	-801.101806640625	-0.0	-0.0	-0.0	-0.0	-0.0	-0.0	-0.0	-0.0	-0.0	-0.0	-0.0	-0.0
0.42250000000000015	-0.0	-0.0	-0.0	0.8436594605445862	-19.86073112487793	-808.3984985351562	-0.0	-0.0	-0.0	-0.0	-0.0	-0.0	-0.0	-0.0	-0.0	-0.0	-0.0	-0.0
0.42300000000000015	-0.0	-0.0	-0.0	1.508763313293457	-18.44999313354492	-810.2257080078125	-0.0	-0.0	-0.0	-0.0	-0.0	-0.0	-0.0	-0.0	-0.0	-0.0	-0.0	-0.0
0.42350000000000015	-0.0	-0.0	-0.0	2.6763153076171875	-16.456466674804688	-813.1495971679688	-0.0	-0.0	-0.0	-0.0	-0.0	-0.0	-0.0	-0.0	-0.0	-0.0	-0.0	-0.0
0.42400000000000015	-0.0	-0.0	-0.0	3.365832805633545	-13.62890338897705	-813.984130859375	-0.0	-0.0	-0.0	-0.0	-0.0	-0.0	-0.0	-0.0	-0.0	-0.0	-0.0	-0.0
0.42450000000000015	-0.0	-0.0	-0.0	4.1359734535217285	-11.093183517456056	-816.32666015625	-0.0	-0.0	-0.0	-0.0	-0.0	-0.0	-0.0	-0.0	-0.0	-0.0	-0.0	-0.0
0.42500000000000016	-0.0	-0.0	-0.0	4.753168106079102	-7.486953735351562	-816.7120971679688	-0.0	-0.0	-0.0	-0.0	-0.0	-0.0	-0.0	-0.0	-0.0	-0.0	-0.0	-0.0
0.42550000000000016	-0.0	-0.0	-0.0	5.766748428344727	-5.105751514434815	-820.210205078125	-0.0	-0.0	-0.0	-0.0	-0.0	-0.0	-0.0	-0.0	-0.0	-0.0	-0.0	-0.0
0.42600000000000016	-0.0	-0.0	-0.0	6.218930721282959	-2.5128390789031982	-824.8687744140625	-0.0	-0.0	-0.0	-0.0	-0.0	-0.0	-0.0	-0.0	-0.0	-0.0	-0.0	-0.0
0.42650000000000016	-0.0	-0.0	-0.0	6.851751804351807	-0.169539988040924	-829.61962890625	-0.0	-0.0	-0.0	-0.0	-0.0	-0.0	-0.0	-0.0	-0.0	-0.0	-0.0	-0.0
0.42700000000000016	-0.0	-0.0	-0.0	7.096667289733887	1.212403416633606	-831.420654296875	-0.0	-0.0	-0.0	-0.0	-0.0	-0.0	-0.0	-0.0	-0.0	-0.0	-0.0	-0.0
0.42750000000000016	-0.0	-0.0	-0.0	6.891329765319824	2.081085443496704	-833.239013671875	-0.0	-0.0	-0.0	-0.0	-0.0	-0.0	-0.0	-0.0	-0.0	-0.0	-0.0	-0.0
0.42800000000000016	-0.0	-0.0	-0.0	6.6598639488220215	3.525207042694092	-833.540771484375	-0.0	-0.0	-0.0	-0.0	-0.0	-0.0	-0.0	-0.0	-0.0	-0.0	-0.0	-0.0
0.42850000000000016	-0.0	-0.0	-0.0	5.549602508544922	4.475054264068604	-832.8717041015625	-0.0	-0.0	-0.0	-0.0	-0.0	-0.0	-0.0	-0.0	-0.0	-0.0	-0.0	-0.0
0.42900000000000016	-0.0	-0.0	-0.0	5.641403675079346	5.514339447021484	-832.5659790039062	-0.0	-0.0	-0.0	-0.0	-0.0	-0.0	-0.0	-0.0	-0.0	-0.0	-0.0	-0.0
0.42950000000000016	-0.0	-0.0	-0.0	5.70947265625	6.476183891296387	-832.5203247070312	-0.0	-0.0	-0.0	-0.0	-0.0	-0.0	-0.0	-0.0	-0.0	-0.0	-0.0	-0.0
0.43000000000000016	-0.0	-0.0	-0.0	5.540701389312744	7.188278198242188	-831.7005615234375	-0.0	-0.0	-0.0	-0.0	-0.0	-0.0	-0.0	-0.0	-0.0	-0.0	-0.0	-0.0
0.43050000000000016	-0.0	-0.0	-0.0	5.411900520324707	7.734809398651123	-829.5422973632812	-0.0	-0.0	-0.0	-0.0	-0.0	-0.0	-0.0	-0.0	-0.0	-0.0	-0.0	-0.0
0.43100000000000016	-0.0	-0.0	-0.0	5.233681678771973	7.734540462493896	-826.0093383789062	-0.0	-0.0	-0.0	-0.0	-0.0	-0.0	-0.0	-0.0	-0.0	-0.0	-0.0	-0.0
0.43150000000000016	-0.0	-0.0	-0.0	5.1742095947265625	7.556020736694336	-825.2645874023438	-0.0	-0.0	-0.0	-0.0	-0.0	-0.0	-0.0	-0.0	-0.0	-0.0	-0.0	-0.0
0.43200000000000016	-0.0	-0.0	-0.0	4.6106367111206055	7.218493461608887	-822.1669311523438	-0.0	-0.0	-0.0	-0.0	-0.0	-0.0	-0.0	-0.0	-0.0	-0.0	-0.0	-0.0
0.43250000000000016	-0.0	-0.0	-0.0	3.7159273624420166	6.8236236572265625	-822.6306762695312	-0.0	-0.0	-0.0	-0.0	-0.0	-0.0	-0.0	-0.0	-0.0	-0.0	-0.0	-0.0
0.43300000000000016	-0.0	-0.0	-0.0	3.3691365718841557	6.359524726867676	-821.5791015625	-0.0	-0.0	-0.0	-0.0	-0.0	-0.0	-0.0	-0.0	-0.0	-0.0	-0.0	-0.0
0.43350000000000016	-0.0	-0.0	-0.0	2.689687013626098	5.633450984954834	-823.220703125	-0.0	-0.0	-0.0	-0.0	-0.0	-0.0	-0.0	-0.0	-0.0	-0.0	-0.0	-0.0
0.43400000000000016	-0.0	-0.0	-0.0	2.2802159786224365	5.162399768829346	-824.519775390625	-0.0	-0.0	-0.0	-0.0	-0.0	-0.0	-0.0	-0.0	-0.0	-0.0	-0.0	-0.0
0.43450000000000016	-0.0	-0.0	-0.0	2.391134738922119	4.912984848022461	-827.6986083984375	-0.0	-0.0	-0.0	-0.0	-0.0	-0.0	-0.0	-0.0	-0.0	-0.0	-0.0	-0.0
0.43500000000000016	-0.0	-0.0	-0.0	1.88437819480896	4.874028205871582	-829.861328125	-0.0	-0.0	-0.0	-0.0	-0.0	-0.0	-0.0	-0.0	-0.0	-0.0	-0.0	-0.0
0.43550000000000016	-0.0	-0.0	-0.0	1.6617389917373655	5.041406154632568	-830.3260498046875	-0.0	-0.0	-0.0	-0.0	-0.0	-0.0	-0.0	-0.0	-0.0	-0.0	-0.0	-0.0
0.43600000000000017	-0.0	-0.0	-0.0	1.276732087135315	5.286453723907471	-831.673095703125	-0.0	-0.0	-0.0	-0.0	-0.0	-0.0	-0.0	-0.0	-0.0	-0.0	-0.0	-0.0
0.43650000000000017	-0.0	-0.0	-0.0	1.0591579675674438	5.576329231262207	-832.7792358398438	-0.0	-0.0	-0.0	-0.0	-0.0	-0.0	-0.0	-0.0	-0.0	-0.0	-0.0	-0.0
0.43700000000000017	-0.0	-0.0	-0.0	0.8691486716270447	5.564916133880615	-828.913330078125	-0.0	-0.0	-0.0	-0.0	-0.0	-0.0	-0.0	-0.0	-0.0	-0.0	-0.0	-0.0
0.43750000000000017	-0.0	-0.0	-0.0	0.0388114340603351	6.227550983428955	-826.9478759765625	-0.0	-0.0	-0.0	-0.0	-0.0	-0.0	-0.0	-0.0	-0.0	-0.0	-0.0	-0.0
0.43800000000000017	-0.0	-0.0	-0.0	-0.4495600163936615	6.48305606842041	-823.8758544921875	-0.0	-0.0	-0.0	-0.0	-0.0	-0.0	-0.0	-0.0	-0.0	-0.0	-0.0	-0.0
0.43850000000000017	-0.0	-0.0	-0.0	-0.449114590883255	6.812546253204346	-820.5309448242188	-0.0	-0.0	-0.0	-0.0	-0.0	-0.0	-0.0	-0.0	-0.0	-0.0	-0.0	-0.0
0.43900000000000017	-0.0	-0.0	-0.0	-1.007914423942566	6.711355209350586	-814.93896484375	-0.0	-0.0	-0.0	-0.0	-0.0	-0.0	-0.0	-0.0	-0.0	-0.0	-0.0	-0.0
0.43950000000000017	-0.0	-0.0	-0.0	-1.070526123046875	6.607771873474121	-812.1047973632812	-0.0	-0.0	-0.0	-0.0	-0.0	-0.0	-0.0	-0.0	-0.0	-0.0	-0.0	-0.0
0.44000000000000017	-0.0	-0.0	-0.0	-1.058283805847168	6.137766361236572	-805.9566650390625	-0.0	-0.0	-0.0	-0.0	-0.0	-0.0	-0.0	-0.0	-0.0	-0.0	-0.0	-0.0
0.44050000000000017	-0.0	-0.0	-0.0	-0.6752772927284241	5.615215301513672	-801.8705444335938	-0.0	-0.0	-0.0	-0.0	-0.0	-0.0	-0.0	-0.0	-0.0	-0.0	-0.0	-0.0
0.44100000000000017	-0.0	-0.0	-0.0	-0.1784210205078125	5.195358276367188	-797.3284912109375	-0.0	-0.0	-0.0	-0.0	-0.0	-0.0	-0.0	-0.0	-0.0	-0.0	-0.0	-0.0
0.44150000000000017	-0.0	-0.0	-0.0	0.3311887681484222	4.82566499710083	-792.1826171875	-0.0	-0.0	-0.0	-0.0	-0.0	-0.0	-0.0	-0.0	-0.0	-0.0	-0.0	-0.0
0.44200000000000017	-0.0	-0.0	-0.0	0.9303157329559326	4.125397205352783	-789.1552734375	-0.0	-0.0	-0.0	-0.0	-0.0	-0.0	-0.0	-0.0	-0.0	-0.0	-0.0	-0.0
0.44250000000000017	-0.0	-0.0	-0.0	1.7836084365844729	3.577519416809082	-785.5256958007812	-0.0	-0.0	-0.0	-0.0	-0.0	-0.0	-0.0	-0.0	-0.0	-0.0	-0.0	-0.0
0.44300000000000017	-0.0	-0.0	-0.0	2.3455772399902344	2.5217318534851074	-781.7896118164062	-0.0	-0.0	-0.0	-0.0	-0.0	-0.0	-0.0	-0.0	-0.0	-0.0	-0.0	-0.0
0.44350000000000017	-0.0	-0.0	-0.0	3.1735637187957764	2.07481050491333	-778.5130004882812	-0.0	-0.0	-0.0	-0.0	-0.0	-0.0	-0.0	-0.0	-0.0	-0.0	-0.0	-0.0
0.4440000000000002	-0.0	-0.0	-0.0	3.826582908630371	1.8357212543487549	-779.41552734375	-0.0	-0.0	-0.0	-0.0	-0.0	-0.0	-0.0	-0.0	-0.0	-0.0	-0.0	-0.0
0.4445000000000002	-0.0	-0.0	-0.0	3.657630920410156	1.5286495685577393	-778.055419921875	-0.0	-0.0	-0.0	-0.0	-0.0	-0.0	-0.0	-0.0	-0.0	-0.0	-0.0	-0.0
0.4450000000000002	-0.0	-0.0	-0.0	3.527705192565918	0.7750544548034668	-776.2472534179688	-0.0	-0.0	-0.0	-0.0	-0.0	-0.0	-0.0	-0.0	-0.0	-0.0	-0.0	-0.0
0.4455000000000002	-0.0	-0.0	-0.0	3.877097845077514	0.6343037486076355	-772.1055297851562	-0.0	-0.0	-0.0	-0.0	-0.0	-0.0	-0.0	-0.0	-0.0	-0.0	-0.0	-0.0
0.4460000000000002	-0.0	-0.0	-0.0	3.4276864528656006	0.0138241499662399	-770.638671875	-0.0	-0.0	-0.0	-0.0	-0.0	-0.0	-0.0	-0.0	-0.0	-0.0	-0.0	-0.0
0.4465000000000002	-0.0	-0.0	-0.0	3.116936683654785	-0.7742722630500793	-769.0769653320312	-0.0	-0.0	-0.0	-0.0	-0.0	-0.0	-0.0	-0.0	-0.0	-0.0	-0.0	-0.0
0.4470000000000002	-0.0	-0.0	-0.0	1.7325555086135864	-2.5050010681152344	-771.49365234375	-0.0	-0.0	-0.0	-0.0	-0.0	-0.0	-0.0	-0.0	-0.0	-0.0	-0.0	-0.0
